<svg xmlns="http://www.w3.org/2000/svg" width="24.182" height="26.869" viewBox="0 0 24.182 26.869">
  <defs>
    <style>
      .cls-1 {
        fill: #045b9b;
      }
    </style>
  </defs>
  <g id="Iconly_Bold_Calendar" data-name="Iconly/Bold/Calendar" transform="translate(-3 -2)">
    <g id="Calendar" transform="translate(3 2)">
      <path id="Calendar-2" data-name="Calendar" class="cls-1" d="M6.921,26.869H6.906a6.922,6.922,0,0,1-5.023-1.856A6.9,6.9,0,0,1,.015,19.99L0,8.8A6.837,6.837,0,0,1,1.637,4.1,6.635,6.635,0,0,1,6.054,2.055V1.048A1.038,1.038,0,0,1,6.348.3a1.029,1.029,0,0,1,1.747.741v.941l7.88-.011V1.035a1.034,1.034,0,0,1,.293-.741,1.029,1.029,0,0,1,1.749.739V2.04a6.671,6.671,0,0,1,4.461,2,6.708,6.708,0,0,1,1.688,4.681l.015,11.32c0,4.2-2.635,6.811-6.889,6.817Zm10.6-7.8a1.119,1.119,0,0,0-1.087,1.144,1.115,1.115,0,1,0,1.1-1.144Zm-10.917,0h0A1.143,1.143,0,0,0,5.52,20.223,1.105,1.105,0,0,0,6.609,21.3h.052a1.087,1.087,0,0,0,.758-.356,1.1,1.1,0,0,0,.289-.8,1.092,1.092,0,0,0-1.1-1.072Zm5.465-.007h0a1.148,1.148,0,0,0-1.086,1.157,1.106,1.106,0,0,0,1.093,1.074h.048a1.106,1.106,0,0,0,1.047-1.157,1.092,1.092,0,0,0-1.1-1.072ZM6.6,14.232h0a1.143,1.143,0,0,0-1.086,1.156A1.1,1.1,0,0,0,6.6,16.463h.052a1.083,1.083,0,0,0,.757-.356,1.105,1.105,0,0,0,.288-.8,1.091,1.091,0,0,0-1.1-1.072Zm5.466-.047h0a1.143,1.143,0,0,0-1.087,1.156,1.106,1.106,0,0,0,1.094,1.075h.048a1.109,1.109,0,0,0,1.046-1.157,1.093,1.093,0,0,0-1.1-1.072Zm5.468.009h0a1.11,1.11,0,0,0-1.086,1.127v.016a1.093,1.093,0,0,0,1.1,1.072h.025a1.108,1.108,0,0,0-.038-2.215ZM6.056,4.109C3.389,4.377,2.039,5.955,2.042,8.8l0,.417,20.082-.027v-.47c-.057-2.838-1.439-4.4-4.106-4.627V5.128a1.026,1.026,0,0,1-1.751.735,1.039,1.039,0,0,1-.291-.732V4.043L8.1,4.054l0,1.086a1.027,1.027,0,0,1-1.752.735,1.039,1.039,0,0,1-.291-.733V4.109Z" transform="translate(0 0)"/>
    </g>
  </g>
</svg>
