<svg xmlns="http://www.w3.org/2000/svg" width="72" height="93.307" viewBox="0 0 72 93.307">
  <defs>
    <style>
      .cls-1 {
        fill: none;
        stroke: #045b9b;
        stroke-linecap: round;
        stroke-linejoin: round;
        stroke-width: 2px;
      }
    </style>
  </defs>
  <path id="Path_255" data-name="Path 255" class="cls-1" d="M404.214,325.354a17.906,17.906,0,1,0-17.907,17.906A17.908,17.908,0,0,0,404.214,325.354Zm2.654,22.591,14.442,29.276-8.843-.5-4.959,7.318-14.275-28.93m-27.48-7.148L351.31,377.221l8.823-.5v.025l4.978,7.294,14.278-28.93m35.4-29.759,2.543-10.082-7.98-6.662-3.873-9.647-10.371-.709-8.8-5.519-8.808,5.519-10.366.714-3.873,9.643-7.979,6.662,2.541,10.082-2.541,10.082,7.979,6.662,3.873,9.643,10.371.714,8.8,5.519,8.8-5.519,10.371-.714,3.873-9.643,7.98-6.662Z" transform="translate(-350.31 -291.735)"/>
</svg>
