<svg xmlns="http://www.w3.org/2000/svg" width="119.818" height="82.008" viewBox="0 0 119.818 82.008">
  <defs>
    <style>
      .cls-1 {
        fill: none;
        stroke: #045b9b;
        stroke-linecap: round;
        stroke-linejoin: round;
        stroke-width: 2px;
      }
    </style>
  </defs>
  <g id="Group_344" data-name="Group 344" transform="translate(1.365 1)">
    <path id="Path_253" data-name="Path 253" class="cls-1" d="M467.124,226.462l-19.808-34.639L427.5,226.462m0,0a23.225,23.225,0,0,0,39.622,0Zm-37.851-11.768-19.808-34.639-19.808,34.639m58.534-37.15V157.557m8.341,28.413a8.344,8.344,0,1,0-8.341,8.42A8.382,8.382,0,0,0,416.91,185.97Zm-.1,1.265,30.453,4.665.079.016m-47-7.217L369.8,180.017m-19.765,34.677a23.221,23.221,0,0,0,39.616,0Z" transform="translate(-350.035 -157.557)"/>
    <path id="Path_254" data-name="Path 254" class="cls-1" d="M467.124,226.462l-19.808-34.639L427.5,226.462m0,0a23.225,23.225,0,0,0,39.622,0Zm-37.851-11.768-19.808-34.639-19.808,34.639m58.534-37.15V157.557m8.341,28.413a8.344,8.344,0,1,0-8.341,8.42A8.382,8.382,0,0,0,416.91,185.97Zm-.1,1.265,30.453,4.665.079.016m-47-7.217L369.8,180.017m-19.765,34.677a23.221,23.221,0,0,0,39.616,0Z" transform="translate(-350.035 -157.557)"/>
  </g>
</svg>
