<svg id="Iconly_Light-Outline_Arrow_-_Down" data-name="Iconly Light-Outline Arrow - Down" xmlns="http://www.w3.org/2000/svg" width="25.625" height="13.554" viewBox="0 0 25.625 13.554">
  <g id="Arrow_-_Down-5" data-name="Arrow - Down-5">
    <path id="Stroke_1-106" data-name="Stroke 1-106" d="M479.839,635.835a.749.749,0,0,0-.648-.743l-.1-.007H454.965a.75.75,0,0,0-.1,1.493l.1.007h24.124A.75.75,0,0,0,479.839,635.835Z" transform="translate(-454.214 -629.06)" fill="#155199"/>
    <path id="Stroke_3-84" data-name="Stroke 3-84" d="M479.615,630.341a.75.75,0,0,0-.974-1.135l-.084.072-6.05,6.025a.748.748,0,0,0-.073.979l.073.084,6.05,6.024a.75.75,0,0,0,1.131-.981l-.073-.084-5.516-5.491Z" transform="translate(-472.285 -629.06)" fill="#155199"/>
  </g>
</svg>
