<svg xmlns="http://www.w3.org/2000/svg" width="67.068" height="82.008" viewBox="0 0 67.068 82.008">
  <defs>
    <style>
      .cls-1 {
        fill: none;
        stroke: #045b9b;
        stroke-linecap: round;
        stroke-linejoin: round;
        stroke-width: 2px;
      }
    </style>
  </defs>
  <g id="Group_347" data-name="Group 347" transform="translate(1.015 1)">
    <path id="Path_269" data-name="Path 269" class="cls-1" d="M386.576,691.888a96.637,96.637,0,0,0-39,77.572M364,735.051a23.808,23.808,0,0,0-13.692,11.171,23.877,23.877,0,0,0,31.316-9.869A23.775,23.775,0,0,0,364,735.051Zm-18.5-5.866a23.781,23.781,0,0,1,4.747,17.023,23.876,23.876,0,0,1-19.9-26.111A23.8,23.8,0,0,1,345.5,729.185Zm32.284-21.57a23.811,23.811,0,0,0-14.7,9.8,23.86,23.86,0,0,0,32.12-6.8A23.821,23.821,0,0,0,377.785,707.614Zm-17.841-7.621a23.776,23.776,0,0,1,3.078,17.4,23.861,23.861,0,0,1-17.283-27.913A23.813,23.813,0,0,1,359.944,699.993Z" transform="translate(-330.15 -689.452)"/>
    <path id="Path_270" data-name="Path 270" class="cls-1" d="M386.512,691.858a96.639,96.639,0,0,0-39.005,77.573m16.43-34.409a23.806,23.806,0,0,0-13.693,11.17,23.875,23.875,0,0,0,31.315-9.868A23.762,23.762,0,0,0,363.937,735.022Zm-18.5-5.866a23.786,23.786,0,0,1,4.747,17.023,23.877,23.877,0,0,1-19.9-26.111A23.8,23.8,0,0,1,345.437,729.156Zm32.285-21.57a23.805,23.805,0,0,0-14.7,9.8,23.859,23.859,0,0,0,32.119-6.8A23.815,23.815,0,0,0,377.722,707.585Zm-17.843-7.621a23.784,23.784,0,0,1,3.079,17.4,23.857,23.857,0,0,1-17.284-27.912A23.808,23.808,0,0,1,359.88,699.964Z" transform="translate(-330.145 -689.45)"/>
  </g>
</svg>
