<svg xmlns="http://www.w3.org/2000/svg" width="99.927" height="82.008" viewBox="0 0 99.927 82.008">
  <defs>
    <style>
      .cls-1 {
        fill: none;
        stroke: #045b9b;
        stroke-linecap: round;
        stroke-linejoin: round;
        stroke-width: 2px;
      }
    </style>
  </defs>
  <g id="Group_345" data-name="Group 345" transform="translate(1 1)">
    <path id="Path_256" data-name="Path 256" class="cls-1" d="M416.17,497.078l-26.644,26.65A5.676,5.676,0,1,1,381.5,515.7m26.448-26.846-29.3,29.289a5.672,5.672,0,0,1-8.021-8.023l29.294-29.288M373.2,507.4a5.676,5.676,0,0,1-8.027-8.026l26.65-26.645m6.015,42.97a5.676,5.676,0,0,0,8.026,8.027l29.092-29.1a28.761,28.761,0,1,0-40.674-40.674l-10.619,10.614-13.292,13.3a5.672,5.672,0,1,0,8.02,8.021m16.158-32.085a28.761,28.761,0,1,0-40.674,40.674l9.674,9.673" transform="translate(-345.454 -445.378)"/>
    <path id="Path_257" data-name="Path 257" class="cls-1" d="M416.17,497.078l-26.644,26.65A5.676,5.676,0,1,1,381.5,515.7m26.448-26.846-29.3,29.289a5.672,5.672,0,0,1-8.021-8.023l29.294-29.288M373.2,507.4a5.676,5.676,0,0,1-8.027-8.026l26.65-26.645m6.015,42.97a5.676,5.676,0,0,0,8.026,8.027l29.092-29.1a28.761,28.761,0,1,0-40.674-40.674l-10.619,10.614-13.292,13.3a5.672,5.672,0,1,0,8.02,8.021m16.158-32.085a28.761,28.761,0,1,0-40.674,40.674l9.674,9.673" transform="translate(-345.454 -445.378)"/>
  </g>
</svg>
