<svg xmlns="http://www.w3.org/2000/svg" width="25.625" height="13.554" viewBox="0 0 25.625 13.554">
  <g id="Iconly_Light-Outline_Arrow_-_Down" data-name="Iconly Light-Outline Arrow - Down" transform="translate(-454.217 -629.06)">
    <g id="Arrow_-_Down-5" data-name="Arrow - Down-5">
      <path id="Stroke_1-106" data-name="Stroke 1-106" d="M454.217,635.835a.749.749,0,0,1,.648-.743l.1-.007h24.124a.75.75,0,0,1,.1,1.493l-.1.007H454.967A.75.75,0,0,1,454.217,635.835Z" fill="#155199"/>
      <path id="Stroke_3-84" data-name="Stroke 3-84" d="M472.512,630.341a.75.75,0,0,1,.974-1.135l.084.072,6.05,6.025a.748.748,0,0,1,.073.979l-.073.084-6.05,6.024a.75.75,0,0,1-1.131-.981l.073-.084,5.516-5.491Z" fill="#155199"/>
    </g>
  </g>
</svg>
