<svg xmlns="http://www.w3.org/2000/svg" width="113.25" height="82.008" viewBox="0 0 113.25 82.008">
  <defs>
    <style>
      .cls-1 {
        fill: none;
        stroke: #045b9b;
        stroke-linecap: round;
        stroke-linejoin: round;
        stroke-width: 2px;
      }
    </style>
  </defs>
  <g id="Group_343" data-name="Group 343" transform="translate(1 1)">
    <path id="Path_250" data-name="Path 250" class="cls-1" d="M422.878,93.226h48.09A6.034,6.034,0,0,1,477,99.263v9.03a6.033,6.033,0,0,1-6.032,6.03H371.787a6.038,6.038,0,0,1-6.037-6.03v-9.03a6.039,6.039,0,0,1,6.037-6.037h7.53c-.018-.583-.038-1.173-.038-1.756A42.056,42.056,0,0,1,407.5,51.722m27.763,0a42.087,42.087,0,0,1,28.2,39.747c0,.583-.02,1.173-.038,1.756" transform="translate(-365.75 -34.315)"/>
    <path id="Path_251" data-name="Path 251" class="cls-1" d="M422.878,93.226h48.09A6.034,6.034,0,0,1,477,99.263v9.03a6.033,6.033,0,0,1-6.032,6.03H371.787a6.038,6.038,0,0,1-6.037-6.03v-9.03a6.039,6.039,0,0,1,6.037-6.037h7.53c-.018-.583-.038-1.173-.038-1.756A42.056,42.056,0,0,1,407.5,51.722m27.763,0a42.087,42.087,0,0,1,28.2,39.747c0,.583-.02,1.173-.038,1.756" transform="translate(-365.75 -34.315)"/>
    <path id="Path_252" data-name="Path 252" class="cls-1" d="M426.713,68.156V41.623a3.3,3.3,0,0,0-3.3-3.3H402.251a3.3,3.3,0,0,0-3.3,3.3V68.156" transform="translate(-355.82 -38.323)"/>
  </g>
</svg>
